<svg width="432" height="432" viewBox="0 0 432 432" fill="none" xmlns="http://www.w3.org/2000/svg">
<path fill-rule="evenodd" clip-rule="evenodd" d="M148.179 431.477C149.422 432.208 150.97 432.17 152.177 431.378L201.556 398.96C202.629 398.256 203.276 397.056 203.276 395.769V263.074H228.724V396.481C228.724 397.782 229.384 398.993 230.476 399.693L279.856 431.399C281.008 432.139 282.467 432.2 283.676 431.558L377.687 381.693C378.932 381.033 379.711 379.735 379.711 378.322V318.732L430.12 289.121C431.284 288.437 432 287.185 432 285.83V154.733C432 153.479 431.386 152.306 430.358 151.594L379.711 116.538V59.1142C379.711 57.7606 378.996 56.5085 377.833 55.8242L283.821 0.523301C282.578 -0.208092 281.03 -0.1699 279.823 0.621907L230.444 33.0397C229.371 33.744 228.724 34.9442 228.724 36.2312V196.134H203.276V33.5713C203.276 32.2321 202.576 30.9911 201.433 30.3019L152.053 0.543698C150.913 -0.142896 149.499 -0.181719 148.324 0.441528L54.3127 50.3066C53.0678 50.967 52.289 52.2646 52.289 53.6782V113.268L1.87993 142.879C0.71566 143.563 0 144.815 0 146.17V277.267C0 278.521 0.614042 279.694 1.64223 280.406L52.289 315.462V372.886C52.289 374.239 53.0037 375.492 54.1669 376.176L148.179 431.477ZM195.68 263.074V393.706L149.989 423.703L59.8843 370.7V195.762L86.634 179.173C89.0954 181.066 92.174 182.191 95.5142 182.191C103.586 182.191 110.129 175.621 110.129 167.517C110.129 159.413 103.586 152.843 95.5142 152.843C87.4426 152.843 80.8993 159.413 80.8993 167.517C80.8993 169.49 81.2869 171.371 81.9899 173.089L54.091 190.391C52.9708 191.086 52.289 192.313 52.289 193.635V306.199L7.59537 275.264V148.357L121.451 81.4772C124.04 83.8126 127.463 85.2335 131.217 85.2335C139.288 85.2335 145.832 78.6636 145.832 70.5593C145.832 62.455 139.288 55.8852 131.217 55.8852C123.145 55.8852 116.602 62.455 116.602 70.5593C116.602 72.1353 116.849 73.6532 117.307 75.0761L59.8843 108.807V55.9763L149.979 8.18859L195.681 35.7299V84.4588L148.191 112.158C147.021 112.84 146.301 114.096 146.301 115.455V207.721L100.949 239.558C99.9329 240.271 99.3276 241.438 99.3276 242.683V292.17C93.1308 293.871 88.5762 299.565 88.5762 306.326C88.5762 314.43 95.1196 321 103.191 321C111.263 321 117.806 314.43 117.806 306.326C117.806 299.517 113.187 293.791 106.923 292.135V244.67L146.301 217.026V333.044C140.206 334.812 135.749 340.455 135.749 347.144C135.749 355.248 142.292 361.818 150.364 361.818C158.435 361.818 164.979 355.248 164.979 347.144C164.979 340.262 160.261 334.487 153.896 332.901V117.65L195.681 93.2783V196.134H187.692C184.414 196.134 181.757 198.802 181.757 202.093V257.115C181.757 260.406 184.414 263.074 187.692 263.074H195.68ZM236.32 196.134V38.2938L282.011 8.29714L372.116 61.2996V236.238L343.039 254.27C340.441 251.89 336.985 250.439 333.191 250.439C325.12 250.439 318.576 257.009 318.576 265.113C318.576 273.217 325.12 279.787 333.191 279.787C341.263 279.787 347.806 273.217 347.806 265.113C347.806 263.574 347.57 262.09 347.132 260.695L377.909 241.609C379.029 240.914 379.711 239.687 379.711 238.365V125.801L424.405 156.736V283.643L309.524 351.125C306.875 348.435 303.198 346.769 299.133 346.769C291.061 346.769 284.518 353.339 284.518 361.443C284.518 369.547 291.061 376.117 299.133 376.117C307.204 376.117 313.748 369.547 313.748 361.443C313.748 360.168 313.586 358.932 313.282 357.753L372.116 323.193V376.024L282.084 423.778L236.319 394.393V345.67L283.71 319.898C284.936 319.231 285.699 317.944 285.699 316.545V224.279L331.051 192.442C332.067 191.729 332.672 190.562 332.672 189.317V126.48C338.677 124.656 343.048 119.057 343.048 112.433C343.048 104.329 336.505 97.7589 328.433 97.7589C320.361 97.7589 313.818 104.329 313.818 112.433C313.818 119.378 318.623 125.196 325.077 126.719V187.33L285.699 214.974V88.2747C292.11 86.7208 296.872 80.9237 296.872 74.0099C296.872 65.9056 290.329 59.3357 282.257 59.3357C274.186 59.3357 267.642 65.9056 267.642 74.0099C267.642 80.6655 272.056 86.2863 278.104 88.083V314.274L236.319 336.997V263.074H242.492C245.77 263.074 248.427 260.406 248.427 257.115V202.093C248.427 198.802 245.77 196.134 242.492 196.134H236.32ZM189.353 255.448V203.76H240.831V255.448L189.353 255.448ZM88.4947 167.517C88.4947 171.41 91.6374 174.565 95.5142 174.565C99.391 174.565 102.534 171.41 102.534 167.517C102.534 163.625 99.391 160.469 95.5142 160.469C91.6374 160.469 88.4947 163.625 88.4947 167.517ZM96.1716 306.326C96.1716 310.218 99.3144 313.374 103.191 313.374C107.068 313.374 110.211 310.218 110.211 306.326C110.211 302.433 107.068 299.278 103.191 299.278C99.3144 299.278 96.1716 302.433 96.1716 306.326ZM124.197 70.5593C124.197 74.4518 127.34 77.6073 131.217 77.6073C135.093 77.6073 138.236 74.4518 138.236 70.5593C138.236 66.6668 135.093 63.5113 131.217 63.5113C127.34 63.5113 124.197 66.6668 124.197 70.5593ZM292.113 361.443C292.113 357.55 295.256 354.395 299.133 354.395C303.01 354.395 306.152 357.55 306.152 361.443C306.152 365.335 303.01 368.491 299.133 368.491C295.256 368.491 292.113 365.335 292.113 361.443ZM326.172 265.113C326.172 261.221 329.314 258.065 333.191 258.065C337.068 258.065 340.211 261.221 340.211 265.113C340.211 269.006 337.068 272.161 333.191 272.161C329.314 272.161 326.172 269.006 326.172 265.113ZM321.413 112.433C321.413 108.541 324.556 105.385 328.433 105.385C332.31 105.385 335.452 108.541 335.452 112.433C335.452 116.326 332.31 119.481 328.433 119.481C324.556 119.481 321.413 116.326 321.413 112.433ZM275.238 74.0099C275.238 70.1174 278.381 66.9619 282.257 66.9619C286.134 66.9619 289.277 70.1174 289.277 74.0099C289.277 77.9024 286.134 81.0579 282.257 81.0579C278.381 81.0579 275.238 77.9024 275.238 74.0099ZM143.344 347.144C143.344 351.036 146.487 354.192 150.364 354.192C154.24 354.192 157.383 351.036 157.383 347.144C157.383 343.251 154.24 340.096 150.364 340.096C146.487 340.096 143.344 343.251 143.344 347.144Z" fill="#4FBE89"/>
</svg>
