<svg width="152" height="36" viewBox="0 0 152 36" fill="none" xmlns="http://www.w3.org/2000/svg">
<path d="M46.5395 14.0615V8.88661H48.6465C49.1985 8.88661 49.6815 8.9975 50.0955 9.21928C50.5144 9.43614 50.8397 9.73924 51.0713 10.1286C51.3029 10.5179 51.4188 10.9664 51.4188 11.4741C51.4188 11.9817 51.3029 12.4302 51.0713 12.8195C50.8397 13.2089 50.5144 13.5145 50.0955 13.7362C49.6815 13.9531 49.1985 14.0615 48.6465 14.0615H46.5395ZM47.0866 13.5884H48.6169C49.0753 13.5884 49.472 13.4997 49.8071 13.3222C50.1472 13.1399 50.4109 12.891 50.5982 12.5756C50.7854 12.2552 50.8791 11.8881 50.8791 11.4741C50.8791 11.0551 50.7854 10.688 50.5982 10.3725C50.4109 10.0571 50.1472 9.8107 49.8071 9.63327C49.472 9.45092 49.0753 9.35974 48.6169 9.35974H47.0866V13.5884ZM53.1647 14.0615V8.88661H55.1016C55.5402 8.88661 55.9173 8.95807 56.2327 9.101C56.5481 9.239 56.7896 9.44106 56.9572 9.7072C57.1297 9.96841 57.2159 10.2863 57.2159 10.6609C57.2159 11.0256 57.1297 11.341 56.9572 11.6071C56.7896 11.8683 56.5481 12.0704 56.2327 12.2133C55.9173 12.3513 55.5402 12.4203 55.1016 12.4203H53.4678L53.7118 12.169V14.0615H53.1647ZM56.6984 14.0615L55.3677 12.1838H55.9592L57.2972 14.0615H56.6984ZM53.7118 12.2133L53.4678 11.9546H55.0868C55.6043 11.9546 55.9961 11.8412 56.2623 11.6145C56.5333 11.3878 56.6689 11.0699 56.6689 10.6609C56.6689 10.2469 56.5333 9.92652 56.2623 9.69981C55.9961 9.4731 55.6043 9.35974 55.0868 9.35974H53.4678L53.7118 9.101V12.2133ZM58.9655 14.0985C58.857 14.0985 58.7634 14.0591 58.6845 13.9802C58.6106 13.9013 58.5737 13.8052 58.5737 13.6919C58.5737 13.5736 58.6106 13.4775 58.6845 13.4036C58.7634 13.3296 58.857 13.2927 58.9655 13.2927C59.0739 13.2927 59.1651 13.3296 59.239 13.4036C59.3179 13.4775 59.3573 13.5736 59.3573 13.6919C59.3573 13.8052 59.3179 13.9013 59.239 13.9802C59.1651 14.0591 59.0739 14.0985 58.9655 14.0985ZM67.3461 8.88661H67.8858V14.0615H67.3461V8.88661ZM64.1081 14.0615H63.561V8.88661H64.1081V14.0615ZM67.3979 11.6737H64.049V11.1931H67.3979V11.6737ZM72.1771 14.1059C71.5167 14.1059 70.9967 13.9161 70.6172 13.5366C70.2377 13.1571 70.048 12.5953 70.048 11.8511V8.88661H70.595V11.8289C70.595 12.4401 70.733 12.891 71.009 13.1818C71.285 13.4726 71.6744 13.618 72.1771 13.618C72.6847 13.618 73.0765 13.4726 73.3525 13.1818C73.6285 12.891 73.7665 12.4401 73.7665 11.8289V8.88661H74.2988V11.8511C74.2988 12.5953 74.1091 13.1571 73.7296 13.5366C73.355 13.9161 72.8375 14.1059 72.1771 14.1059ZM78.7344 14.1059C78.3401 14.1059 77.9754 14.0418 77.6403 13.9137C77.3101 13.7806 77.0217 13.5958 76.7753 13.3592C76.5338 13.1226 76.3441 12.8442 76.2061 12.5238C76.073 12.2035 76.0065 11.8536 76.0065 11.4741C76.0065 11.0946 76.073 10.7446 76.2061 10.4243C76.3441 10.1039 76.5363 9.82549 76.7827 9.58892C77.0291 9.35235 77.3175 9.17 77.6477 9.04186C77.9828 8.90879 78.3475 8.84225 78.7418 8.84225C79.1361 8.84225 79.4958 8.90386 79.8211 9.02707C80.1513 9.15028 80.4323 9.33757 80.6639 9.58892L80.3238 9.93638C80.107 9.71952 79.8679 9.56428 79.6067 9.47063C79.3455 9.37699 79.0646 9.33017 78.764 9.33017C78.4436 9.33017 78.1479 9.38439 77.8768 9.49281C77.6107 9.59631 77.3766 9.74663 77.1745 9.94377C76.9774 10.136 76.8221 10.3627 76.7088 10.6239C76.6004 10.8802 76.5461 11.1636 76.5461 11.4741C76.5461 11.7796 76.6004 12.063 76.7088 12.3242C76.8221 12.5854 76.9774 12.8146 77.1745 13.0118C77.3766 13.204 77.6107 13.3543 77.8768 13.4627C78.1479 13.5662 78.4411 13.618 78.7566 13.618C79.0523 13.618 79.3307 13.5736 79.5919 13.4849C79.8581 13.3962 80.102 13.2459 80.3238 13.0339L80.6343 13.4479C80.3879 13.6648 80.0996 13.8299 79.7694 13.9432C79.4392 14.0517 79.0942 14.1059 78.7344 14.1059ZM80.1094 13.3814V11.4741H80.6343V13.4479L80.1094 13.3814ZM84.9623 14.1059C84.573 14.1059 84.2107 14.0418 83.8756 13.9137C83.5454 13.7806 83.2571 13.5958 83.0106 13.3592C82.7691 13.1177 82.5794 12.8393 82.4414 12.5238C82.3083 12.2035 82.2418 11.8536 82.2418 11.4741C82.2418 11.0946 82.3083 10.7471 82.4414 10.4317C82.5794 10.1113 82.7691 9.83288 83.0106 9.59631C83.2571 9.35482 83.5454 9.17 83.8756 9.04186C84.2058 8.90879 84.568 8.84225 84.9623 8.84225C85.3517 8.84225 85.7114 8.90879 86.0416 9.04186C86.3719 9.17 86.6577 9.35235 86.8992 9.58892C87.1456 9.82549 87.3354 10.1039 87.4684 10.4243C87.6064 10.7446 87.6754 11.0946 87.6754 11.4741C87.6754 11.8536 87.6064 12.2035 87.4684 12.5238C87.3354 12.8442 87.1456 13.1226 86.8992 13.3592C86.6577 13.5958 86.3719 13.7806 86.0416 13.9137C85.7114 14.0418 85.3517 14.1059 84.9623 14.1059ZM84.9623 13.618C85.2728 13.618 85.5587 13.5662 85.8199 13.4627C86.086 13.3543 86.3152 13.204 86.5074 13.0118C86.7045 12.8146 86.8573 12.5879 86.9657 12.3316C87.0742 12.0704 87.1284 11.7846 87.1284 11.4741C87.1284 11.1636 87.0742 10.8802 86.9657 10.6239C86.8573 10.3627 86.7045 10.136 86.5074 9.94377C86.3152 9.74663 86.086 9.59631 85.8199 9.49281C85.5587 9.38439 85.2728 9.33017 84.9623 9.33017C84.6518 9.33017 84.3635 9.38439 84.0974 9.49281C83.8312 9.59631 83.5996 9.74663 83.4024 9.94377C83.2102 10.136 83.0574 10.3627 82.9441 10.6239C82.8357 10.8802 82.7815 11.1636 82.7815 11.4741C82.7815 11.7796 82.8357 12.063 82.9441 12.3242C83.0574 12.5854 83.2102 12.8146 83.4024 13.0118C83.5996 13.204 83.8312 13.3543 84.0974 13.4627C84.3635 13.5662 84.6518 13.618 84.9623 13.618ZM91.0435 14.0615L93.4091 8.88661H93.9488L96.3145 14.0615H95.7379L93.5644 9.2045H93.7862L91.6127 14.0615H91.0435ZM91.975 12.6791L92.1376 12.2355H95.1464L95.3091 12.6791H91.975ZM97.688 14.0615V8.88661H99.6249C100.064 8.88661 100.441 8.95807 100.756 9.101C101.071 9.239 101.313 9.44106 101.481 9.7072C101.653 9.96841 101.739 10.2863 101.739 10.6609C101.739 11.0256 101.653 11.341 101.481 11.6071C101.313 11.8683 101.071 12.0704 100.756 12.2133C100.441 12.3513 100.064 12.4203 99.6249 12.4203H97.9911L98.2351 12.169V14.0615H97.688ZM101.222 14.0615L99.8911 12.1838H100.482L101.821 14.0615H101.222ZM98.2351 12.2133L97.9911 11.9546H99.6101C100.128 11.9546 100.519 11.8412 100.786 11.6145C101.057 11.3878 101.192 11.0699 101.192 10.6609C101.192 10.2469 101.057 9.92652 100.786 9.69981C100.519 9.4731 100.128 9.35974 99.6101 9.35974H97.9911L98.2351 9.101V12.2133ZM104.71 14.0615V12.1394L104.836 12.4795L102.64 8.88661H103.224L105.154 12.0433H104.843L106.773 8.88661H107.32L105.124 12.4795L105.25 12.1394V14.0615H104.71ZM113.4 14.1059C113.011 14.1059 112.649 14.0418 112.314 13.9137C111.983 13.7806 111.695 13.5958 111.449 13.3592C111.207 13.1177 111.017 12.8393 110.879 12.5238C110.746 12.2035 110.68 11.8536 110.68 11.4741C110.68 11.0946 110.746 10.7471 110.879 10.4317C111.017 10.1113 111.207 9.83288 111.449 9.59631C111.695 9.35482 111.983 9.17 112.314 9.04186C112.644 8.90879 113.006 8.84225 113.4 8.84225C113.79 8.84225 114.149 8.90879 114.48 9.04186C114.81 9.17 115.096 9.35235 115.337 9.58892C115.584 9.82549 115.773 10.1039 115.907 10.4243C116.045 10.7446 116.114 11.0946 116.114 11.4741C116.114 11.8536 116.045 12.2035 115.907 12.5238C115.773 12.8442 115.584 13.1226 115.337 13.3592C115.096 13.5958 114.81 13.7806 114.48 13.9137C114.149 14.0418 113.79 14.1059 113.4 14.1059ZM113.4 13.618C113.711 13.618 113.997 13.5662 114.258 13.4627C114.524 13.3543 114.753 13.204 114.945 13.0118C115.143 12.8146 115.295 12.5879 115.404 12.3316C115.512 12.0704 115.566 11.7846 115.566 11.4741C115.566 11.1636 115.512 10.8802 115.404 10.6239C115.295 10.3627 115.143 10.136 114.945 9.94377C114.753 9.74663 114.524 9.59631 114.258 9.49281C113.997 9.38439 113.711 9.33017 113.4 9.33017C113.09 9.33017 112.802 9.38439 112.535 9.49281C112.269 9.59631 112.038 9.74663 111.84 9.94377C111.648 10.136 111.496 10.3627 111.382 10.6239C111.274 10.8802 111.22 11.1636 111.22 11.4741C111.22 11.7796 111.274 12.063 111.382 12.3242C111.496 12.5854 111.648 12.8146 111.84 13.0118C112.038 13.204 112.269 13.3543 112.535 13.4627C112.802 13.5662 113.09 13.618 113.4 13.618ZM117.857 14.0615V8.88661H118.404V13.5884H121.302V14.0615H117.857ZM122.728 14.0615V8.88661H123.275V14.0615H122.728ZM126.89 14.0615L124.598 8.88661H125.189L127.333 13.7584H127.008L129.167 8.88661H129.721L127.429 14.0615H126.89ZM131.478 11.2005H134.213V11.6663H131.478V11.2005ZM131.537 13.5884H134.649V14.0615H130.99V8.88661H134.538V9.35974H131.537V13.5884ZM136.453 14.0615V8.88661H137V14.0615H136.453ZM139.201 14.0615V8.88661H141.138C141.576 8.88661 141.953 8.95807 142.269 9.101C142.584 9.239 142.826 9.44106 142.993 9.7072C143.166 9.96841 143.252 10.2863 143.252 10.6609C143.252 11.0256 143.166 11.341 142.993 11.6071C142.826 11.8683 142.584 12.0704 142.269 12.2133C141.953 12.3513 141.576 12.4203 141.138 12.4203H139.504L139.748 12.169V14.0615H139.201ZM142.735 14.0615L141.404 12.1838H141.995L143.333 14.0615H142.735ZM139.748 12.2133L139.504 11.9546H141.123C141.64 11.9546 142.032 11.8412 142.298 11.6145C142.569 11.3878 142.705 11.0699 142.705 10.6609C142.705 10.2469 142.569 9.92652 142.298 9.69981C142.032 9.4731 141.64 9.35974 141.123 9.35974H139.504L139.748 9.101V12.2133ZM144.233 14.0615L146.598 8.88661H147.138L149.504 14.0615H148.927L146.754 9.2045H146.975L144.802 14.0615H144.233ZM145.164 12.6791L145.327 12.2355H148.336L148.498 12.6791H145.164Z" fill="black"/>
<path d="M46.6154 26.8555V21.6806H47.0663L50.637 26.1753H50.4004V21.6806H50.9401V26.8555H50.4891L46.9258 22.3607H47.1624V26.8555H46.6154ZM53.6346 23.9945H56.3699V24.4602H53.6346V23.9945ZM53.6937 26.3823H56.8061V26.8555H53.1467V21.6806H56.6952V22.1537H53.6937V26.3823ZM60.6942 26.8998C60.0338 26.8998 59.5139 26.7101 59.1344 26.3306C58.7549 25.9511 58.5651 25.3892 58.5651 24.645V21.6806H59.1122V24.6229C59.1122 25.234 59.2502 25.685 59.5262 25.9757C59.8022 26.2665 60.1915 26.4119 60.6942 26.4119C61.2019 26.4119 61.5937 26.2665 61.8697 25.9757C62.1457 25.685 62.2837 25.234 62.2837 24.6229V21.6806H62.816V24.645C62.816 25.3892 62.6262 25.9511 62.2467 26.3306C61.8722 26.7101 61.3547 26.8998 60.6942 26.8998ZM64.982 26.8555V21.6806H66.9189C67.3575 21.6806 67.7345 21.752 68.05 21.8949C68.3654 22.0329 68.6069 22.235 68.7744 22.5011C68.9469 22.7624 69.0332 23.0802 69.0332 23.4548C69.0332 23.8195 68.9469 24.1349 68.7744 24.4011C68.6069 24.6623 68.3654 24.8644 68.05 25.0073C67.7345 25.1453 67.3575 25.2143 66.9189 25.2143H65.2851L65.529 24.9629V26.8555H64.982ZM68.5157 26.8555L67.185 24.9777H67.7764L69.1145 26.8555H68.5157ZM65.529 25.0073L65.2851 24.7485H66.9041C67.4216 24.7485 67.8134 24.6352 68.0795 24.4085C68.3506 24.1818 68.4861 23.8639 68.4861 23.4548C68.4861 23.0408 68.3506 22.7205 68.0795 22.4938C67.8134 22.267 67.4216 22.1537 66.9041 22.1537H65.2851L65.529 21.8949V25.0073ZM73.104 26.8998C72.7147 26.8998 72.3524 26.8358 72.0173 26.7076C71.6871 26.5745 71.3988 26.3897 71.1524 26.1532C70.9109 25.9117 70.7211 25.6332 70.5831 25.3178C70.4501 24.9974 70.3835 24.6475 70.3835 24.268C70.3835 23.8885 70.4501 23.5411 70.5831 23.2256C70.7211 22.9053 70.9109 22.6268 71.1524 22.3903C71.3988 22.1488 71.6871 21.9639 72.0173 21.8358C72.3475 21.7027 72.7098 21.6362 73.104 21.6362C73.4934 21.6362 73.8532 21.7027 74.1834 21.8358C74.5136 21.9639 74.7994 22.1463 75.0409 22.3829C75.2874 22.6194 75.4771 22.8979 75.6102 23.2182C75.7482 23.5386 75.8172 23.8885 75.8172 24.268C75.8172 24.6475 75.7482 24.9974 75.6102 25.3178C75.4771 25.6381 75.2874 25.9166 75.0409 26.1532C74.7994 26.3897 74.5136 26.5745 74.1834 26.7076C73.8532 26.8358 73.4934 26.8998 73.104 26.8998ZM73.104 26.4119C73.4145 26.4119 73.7004 26.3602 73.9616 26.2567C74.2277 26.1482 74.4569 25.9979 74.6491 25.8057C74.8463 25.6086 74.999 25.3819 75.1075 25.1256C75.2159 24.8644 75.2701 24.5785 75.2701 24.268C75.2701 23.9575 75.2159 23.6741 75.1075 23.4178C74.999 23.1566 74.8463 22.9299 74.6491 22.7377C74.4569 22.5406 74.2277 22.3903 73.9616 22.2868C73.7004 22.1783 73.4145 22.1241 73.104 22.1241C72.7935 22.1241 72.5052 22.1783 72.2391 22.2868C71.973 22.3903 71.7413 22.5406 71.5442 22.7377C71.352 22.9299 71.1992 23.1566 71.0858 23.4178C70.9774 23.6741 70.9232 23.9575 70.9232 24.268C70.9232 24.5736 70.9774 24.857 71.0858 25.1182C71.1992 25.3794 71.352 25.6086 71.5442 25.8057C71.7413 25.9979 71.973 26.1482 72.2391 26.2567C72.5052 26.3602 72.7935 26.4119 73.104 26.4119ZM77.5609 26.8555V21.6806H78.1079V26.3823H81.0059V26.8555H77.5609ZM84.5928 26.8998C84.2035 26.8998 83.8412 26.8358 83.5061 26.7076C83.1759 26.5745 82.8876 26.3897 82.6411 26.1532C82.3996 25.9117 82.2099 25.6332 82.0719 25.3178C81.9388 24.9974 81.8723 24.6475 81.8723 24.268C81.8723 23.8885 81.9388 23.5411 82.0719 23.2256C82.2099 22.9053 82.3996 22.6268 82.6411 22.3903C82.8876 22.1488 83.1759 21.9639 83.5061 21.8358C83.8363 21.7027 84.1985 21.6362 84.5928 21.6362C84.9822 21.6362 85.3419 21.7027 85.6722 21.8358C86.0024 21.9639 86.2882 22.1463 86.5297 22.3829C86.7761 22.6194 86.9659 22.8979 87.099 23.2182C87.237 23.5386 87.306 23.8885 87.306 24.268C87.306 24.6475 87.237 24.9974 87.099 25.3178C86.9659 25.6381 86.7761 25.9166 86.5297 26.1532C86.2882 26.3897 86.0024 26.5745 85.6722 26.7076C85.3419 26.8358 84.9822 26.8998 84.5928 26.8998ZM84.5928 26.4119C84.9033 26.4119 85.1892 26.3602 85.4504 26.2567C85.7165 26.1482 85.9457 25.9979 86.1379 25.8057C86.335 25.6086 86.4878 25.3819 86.5962 25.1256C86.7047 24.8644 86.7589 24.5785 86.7589 24.268C86.7589 23.9575 86.7047 23.6741 86.5962 23.4178C86.4878 23.1566 86.335 22.9299 86.1379 22.7377C85.9457 22.5406 85.7165 22.3903 85.4504 22.2868C85.1892 22.1783 84.9033 22.1241 84.5928 22.1241C84.2823 22.1241 83.994 22.1783 83.7279 22.2868C83.4617 22.3903 83.2301 22.5406 83.033 22.7377C82.8407 22.9299 82.688 23.1566 82.5746 23.4178C82.4662 23.6741 82.412 23.9575 82.412 24.268C82.412 24.5736 82.4662 24.857 82.5746 25.1182C82.688 25.3794 82.8407 25.6086 83.033 25.8057C83.2301 25.9979 83.4617 26.1482 83.7279 26.2567C83.994 26.3602 84.2823 26.4119 84.5928 26.4119ZM91.3192 26.8998C90.9249 26.8998 90.5602 26.8358 90.2251 26.7076C89.8949 26.5745 89.6066 26.3897 89.3601 26.1532C89.1187 25.9166 88.9289 25.6381 88.7909 25.3178C88.6578 24.9974 88.5913 24.6475 88.5913 24.268C88.5913 23.8885 88.6578 23.5386 88.7909 23.2182C88.9289 22.8979 89.1211 22.6194 89.3675 22.3829C89.614 22.1463 89.9023 21.9639 90.2325 21.8358C90.5676 21.7027 90.9323 21.6362 91.3266 21.6362C91.7209 21.6362 92.0807 21.6978 92.406 21.821C92.7362 21.9442 93.0171 22.1315 93.2487 22.3829L92.9087 22.7303C92.6918 22.5135 92.4528 22.3582 92.1916 22.2646C91.9304 22.1709 91.6494 22.1241 91.3488 22.1241C91.0284 22.1241 90.7327 22.1783 90.4617 22.2868C90.1955 22.3903 89.9614 22.5406 89.7594 22.7377C89.5622 22.9299 89.407 23.1566 89.2936 23.4178C89.1852 23.6741 89.131 23.9575 89.131 24.268C89.131 24.5736 89.1852 24.857 89.2936 25.1182C89.407 25.3794 89.5622 25.6086 89.7594 25.8057C89.9614 25.9979 90.1955 26.1482 90.4617 26.2567C90.7327 26.3602 91.026 26.4119 91.3414 26.4119C91.6371 26.4119 91.9156 26.3675 92.1768 26.2788C92.4429 26.1901 92.6869 26.0398 92.9087 25.8279L93.2192 26.2419C92.9727 26.4587 92.6844 26.6238 92.3542 26.7372C92.024 26.8456 91.679 26.8998 91.3192 26.8998ZM92.6943 26.1753V24.268H93.2192V26.2419L92.6943 26.1753ZM95.285 26.8555V21.6806H95.832V26.8555H95.285ZM99.4601 26.8998C99.0756 26.8998 98.706 26.8382 98.3512 26.715C98.0012 26.5869 97.7302 26.4242 97.538 26.2271L97.7523 25.8057C97.9347 25.9831 98.1787 26.1334 98.4842 26.2567C98.7947 26.3749 99.12 26.4341 99.4601 26.4341C99.7853 26.4341 100.049 26.3947 100.251 26.3158C100.458 26.232 100.608 26.1211 100.702 25.9831C100.801 25.8451 100.85 25.6923 100.85 25.5248C100.85 25.3227 100.791 25.1601 100.672 25.0369C100.559 24.9136 100.409 24.8175 100.222 24.7485C100.034 24.6746 99.8272 24.6105 99.6005 24.5563C99.3738 24.5021 99.1471 24.4454 98.9204 24.3863C98.6937 24.3222 98.4842 24.2384 98.292 24.1349C98.1047 24.0314 97.952 23.8959 97.8337 23.7283C97.7203 23.5558 97.6636 23.3316 97.6636 23.0556C97.6636 22.7993 97.7302 22.5652 97.8632 22.3533C98.0012 22.1364 98.2107 21.9639 98.4916 21.8358C98.7725 21.7027 99.1323 21.6362 99.571 21.6362C99.8617 21.6362 100.15 21.6781 100.436 21.7619C100.722 21.8407 100.968 21.9516 101.175 22.0945L100.99 22.5307C100.769 22.3829 100.532 22.2744 100.281 22.2054C100.034 22.1364 99.7952 22.1019 99.5636 22.1019C99.2531 22.1019 98.9968 22.1438 98.7947 22.2276C98.5927 22.3114 98.4423 22.4248 98.3438 22.5677C98.2501 22.7057 98.2033 22.8634 98.2033 23.0408C98.2033 23.2429 98.26 23.4055 98.3733 23.5287C98.4916 23.652 98.6444 23.7481 98.8317 23.8171C99.0239 23.8861 99.2334 23.9477 99.4601 24.0019C99.6868 24.0561 99.911 24.1152 100.133 24.1793C100.36 24.2434 100.567 24.3272 100.754 24.4307C100.946 24.5292 101.099 24.6623 101.212 24.8299C101.33 24.9974 101.39 25.2167 101.39 25.4878C101.39 25.7392 101.321 25.9733 101.183 26.1901C101.045 26.402 100.833 26.5745 100.547 26.7076C100.266 26.8358 99.9036 26.8998 99.4601 26.8998ZM104.032 26.8555V22.1537H102.214V21.6806H106.398V22.1537H104.579V26.8555H104.032ZM106.701 26.8555L109.067 21.6806H109.607L111.973 26.8555H111.396L109.222 21.9984H109.444L107.271 26.8555H106.701ZM107.633 25.473L107.796 25.0295H110.804L110.967 25.473H107.633Z" fill="black"/>
<path fill-rule="evenodd" clip-rule="evenodd" d="M12.1395 35.5815C12.2414 35.6411 12.3682 35.638 12.467 35.5734L16.5125 32.9283C16.6004 32.8708 16.6533 32.7729 16.6533 32.6679V21.8407H18.7382V32.726C18.7382 32.8321 18.7923 32.931 18.8817 32.9881L22.9271 35.5752C23.0215 35.6355 23.141 35.6405 23.2401 35.5881L30.942 31.5194C31.044 31.4656 31.1078 31.3597 31.1078 31.2443V26.3822L35.2375 23.9661C35.3329 23.9103 35.3915 23.8081 35.3915 23.6976V13.0008C35.3915 12.8985 35.3412 12.8027 35.257 12.7447L31.1078 9.88433V5.19888C31.1078 5.08843 31.0492 4.98626 30.9539 4.93043L23.252 0.418199C23.1502 0.358521 23.0233 0.361637 22.9245 0.426244L18.879 3.07135C18.7912 3.12882 18.7382 3.22674 18.7382 3.33175V16.3788H16.6534V3.11471C16.6534 3.00544 16.596 2.90418 16.5023 2.84795L12.4569 0.419851C12.3636 0.363829 12.2477 0.360661 12.1515 0.411514L4.44956 4.48022C4.34757 4.53409 4.28377 4.63998 4.28377 4.75532V9.61751L0.154013 12.0336C0.0586304 12.0894 0 12.1916 0 12.3021V22.9988C0 23.1012 0.0503053 23.1969 0.13454 23.255L4.28377 26.1153V30.8008C4.28377 30.9112 4.34232 31.0134 4.43762 31.0692L12.1395 35.5815ZM16.0311 21.8407V32.4996L12.2878 34.9472L4.90602 30.6225V16.3485L7.09736 14.995C7.29904 15.1496 7.5513 15.2414 7.82502 15.2414C8.48628 15.2414 9.02234 14.7054 9.02234 14.0441C9.02234 13.3828 8.48628 12.8468 7.82502 12.8468C7.16375 12.8468 6.62769 13.3828 6.62769 14.0441C6.62769 14.205 6.65942 14.3585 6.71697 14.4986L4.4314 15.9103C4.33963 15.967 4.28377 16.0671 4.28377 16.175V25.3596L0.62225 22.8354V12.4805L9.95006 7.02345C10.1621 7.21397 10.4425 7.32988 10.75 7.32988C11.4113 7.32988 11.9473 6.79382 11.9473 6.13256C11.9473 5.47129 11.4113 4.93523 10.75 4.93523C10.0888 4.93523 9.55269 5.47129 9.55269 6.13256C9.55269 6.26118 9.57297 6.38506 9.61051 6.50118L4.90602 9.25347V4.94283L12.287 1.04363L16.0311 3.29084V7.26683L12.1405 9.52692C12.0446 9.58261 11.9857 9.68509 11.9857 9.79595V17.3243L8.27024 19.922C8.18699 19.9802 8.1374 20.0754 8.1374 20.177V24.2149C7.62979 24.3537 7.25672 24.8182 7.25672 25.3699C7.25672 26.0312 7.79279 26.5672 8.45405 26.5672C9.11531 26.5672 9.65137 26.0312 9.65137 25.3699C9.65137 24.8142 9.27288 24.347 8.75965 24.2119V20.3391L11.9857 18.0836V27.5499C11.4864 27.6941 11.1213 28.1546 11.1213 28.7003C11.1213 29.3616 11.6573 29.8977 12.3186 29.8977C12.9799 29.8977 13.5159 29.3616 13.5159 28.7003C13.5159 28.1388 13.1294 27.6676 12.6079 27.5382V9.97502L16.0311 7.98645V16.3788H15.3766C15.1081 16.3788 14.8904 16.5965 14.8904 16.8651V21.3545C14.8904 21.6231 15.1081 21.8407 15.3766 21.8407H16.0311ZM19.3604 16.3788V3.50005L23.1037 1.0525L30.4855 5.37719V19.6512L28.1034 21.1225C27.8906 20.9284 27.6075 20.81 27.2967 20.81C26.6355 20.81 26.0994 21.3461 26.0994 22.0073C26.0994 22.6686 26.6355 23.2046 27.2967 23.2046C27.958 23.2046 28.4941 22.6686 28.4941 22.0073C28.4941 21.8816 28.4747 21.7605 28.4388 21.6467L30.9601 20.0894C31.0519 20.0327 31.1078 19.9325 31.1078 19.8247V10.6401L34.7693 13.1642V23.5191L25.3577 29.0252C25.1407 28.8057 24.8394 28.6698 24.5064 28.6698C23.8451 28.6698 23.3091 29.2058 23.3091 29.8671C23.3091 30.5284 23.8451 31.0644 24.5064 31.0644C25.1677 31.0644 25.7037 30.5284 25.7037 29.8671C25.7037 29.7631 25.6905 29.6622 25.6656 29.566L30.4855 26.7462V31.0568L23.1097 34.9533L19.3604 32.5557V28.5801L23.2429 26.4773C23.3433 26.4229 23.4059 26.3179 23.4059 26.2037V18.6754L27.1213 16.0776C27.2045 16.0194 27.2541 15.9242 27.2541 15.8227V10.6956C27.7461 10.5468 28.1042 10.0899 28.1042 9.54941C28.1042 8.88814 27.5681 8.35208 26.9069 8.35208C26.2456 8.35208 25.7096 8.88814 25.7096 9.54941C25.7096 10.116 26.1032 10.5907 26.6319 10.715V15.6606L23.4059 17.9161V7.57819C23.9311 7.45142 24.3213 6.9784 24.3213 6.41425C24.3213 5.75298 23.7852 5.21692 23.1239 5.21692C22.4627 5.21692 21.9266 5.75298 21.9266 6.41425C21.9266 6.95729 22.2881 7.41589 22.7836 7.56252V26.0184L19.3604 27.8725V21.8407H19.8661C20.1346 21.8407 20.3523 21.6231 20.3523 21.3545V16.8651C20.3523 16.5965 20.1346 16.3788 19.8661 16.3788H19.3604ZM15.5127 21.2185V17.0011H19.7301V21.2185H15.5127ZM7.24994 14.0441C7.24994 14.3617 7.50741 14.6192 7.82502 14.6192C8.14262 14.6192 8.40009 14.3617 8.40009 14.0441C8.40009 13.7265 8.14262 13.469 7.82502 13.469C7.50741 13.469 7.24994 13.7265 7.24994 14.0441ZM7.87897 25.3699C7.87897 25.6875 8.13644 25.945 8.45405 25.945C8.77165 25.945 9.02912 25.6875 9.02912 25.3699C9.02912 25.0523 8.77165 24.7948 8.45405 24.7948C8.13644 24.7948 7.87897 25.0523 7.87897 25.3699ZM10.1749 6.13256C10.1749 6.45016 10.4324 6.70763 10.75 6.70763C11.0676 6.70763 11.3251 6.45016 11.3251 6.13256C11.3251 5.81495 11.0676 5.55748 10.75 5.55748C10.4324 5.55748 10.1749 5.81495 10.1749 6.13256ZM23.9313 29.8671C23.9313 29.5495 24.1888 29.292 24.5064 29.292C24.824 29.292 25.0815 29.5495 25.0815 29.8671C25.0815 30.1847 24.824 30.4422 24.5064 30.4422C24.1888 30.4422 23.9313 30.1847 23.9313 29.8671ZM26.7217 22.0073C26.7217 21.6897 26.9791 21.4322 27.2967 21.4322C27.6143 21.4322 27.8718 21.6897 27.8718 22.0073C27.8718 22.3249 27.6143 22.5824 27.2967 22.5824C26.9791 22.5824 26.7217 22.3249 26.7217 22.0073ZM26.3318 9.54941C26.3318 9.2318 26.5893 8.97433 26.9069 8.97433C27.2245 8.97433 27.482 9.2318 27.482 9.54941C27.482 9.86701 27.2245 10.1245 26.9069 10.1245C26.5893 10.1245 26.3318 9.86701 26.3318 9.54941ZM22.5489 6.41425C22.5489 6.09664 22.8063 5.83917 23.1239 5.83917C23.4416 5.83917 23.699 6.09664 23.699 6.41425C23.699 6.73185 23.4416 6.98932 23.1239 6.98932C22.8063 6.98932 22.5489 6.73185 22.5489 6.41425ZM11.7435 28.7003C11.7435 29.0179 12.001 29.2754 12.3186 29.2754C12.6362 29.2754 12.8937 29.0179 12.8937 28.7003C12.8937 28.3827 12.6362 28.1253 12.3186 28.1253C12.001 28.1253 11.7435 28.3827 11.7435 28.7003Z" fill="#4FBE89"/>
</svg>
