<svg width="158" height="40" viewBox="0 0 158 40" fill="none" xmlns="http://www.w3.org/2000/svg">
<path d="M54.2899 14.7864V8.10808H57.009C57.7213 8.10808 58.3446 8.25119 58.8789 8.5374C59.4195 8.81725 59.8393 9.20841 60.1382 9.71087C60.4372 10.2133 60.5866 10.7921 60.5866 11.4472C60.5866 12.1023 60.4372 12.6811 60.1382 13.1836C59.8393 13.686 59.4195 14.0804 58.8789 14.3666C58.3446 14.6465 57.7213 14.7864 57.009 14.7864H54.2899ZM54.9959 14.1758H56.9708C57.5623 14.1758 58.0743 14.0613 58.5068 13.8323C58.9457 13.597 59.2859 13.2758 59.5276 12.8688C59.7693 12.4553 59.8902 11.9815 59.8902 11.4472C59.8902 10.9066 59.7693 10.4328 59.5276 10.0257C59.2859 9.61865 58.9457 9.30063 58.5068 9.07166C58.0743 8.83633 57.5623 8.71867 56.9708 8.71867H54.9959V14.1758ZM63.5076 14.7864V8.10808H66.0072C66.5733 8.10808 67.0598 8.2003 67.4669 8.38475C67.874 8.56284 68.1856 8.82361 68.4019 9.16707C68.6245 9.50416 68.7358 9.9144 68.7358 10.3978C68.7358 10.8684 68.6245 11.2755 68.4019 11.619C68.1856 11.9561 67.874 12.2168 67.4669 12.4013C67.0598 12.5794 66.5733 12.6684 66.0072 12.6684H63.8988L64.2136 12.344V14.7864H63.5076ZM68.068 14.7864L66.3507 12.3631H67.1139L68.8407 14.7864H68.068ZM64.2136 12.4013L63.8988 12.0674H65.9881C66.656 12.0674 67.1616 11.9211 67.5051 11.6285C67.8549 11.3359 68.0298 10.9257 68.0298 10.3978C68.0298 9.86352 67.8549 9.4501 67.5051 9.15753C67.1616 8.86495 66.656 8.71867 65.9881 8.71867H63.8988L64.2136 8.38475V12.4013ZM71.6614 14.8341C71.5215 14.8341 71.4006 14.7832 71.2989 14.6814C71.2035 14.5797 71.1558 14.4556 71.1558 14.3094C71.1558 14.1567 71.2035 14.0327 71.2989 13.9373C71.4006 13.8419 71.5215 13.7942 71.6614 13.7942C71.8013 13.7942 71.919 13.8419 72.0144 13.9373C72.1162 14.0327 72.1671 14.1567 72.1671 14.3094C72.1671 14.4556 72.1162 14.5797 72.0144 14.6814C71.919 14.7832 71.8013 14.8341 71.6614 14.8341ZM83.8124 8.10808H84.5089V14.7864H83.8124V8.10808ZM79.6337 14.7864H78.9277V8.10808H79.6337V14.7864ZM83.8792 11.7048H79.5574V11.0847H83.8792V11.7048ZM90.7147 14.8436C89.8624 14.8436 89.1914 14.5987 88.7017 14.109C88.2119 13.6193 87.967 12.8942 87.967 11.9338V8.10808H88.673V11.9052C88.673 12.6938 88.8511 13.2758 89.2073 13.6511C89.5635 14.0263 90.0659 14.214 90.7147 14.214C91.3698 14.214 91.8754 14.0263 92.2316 13.6511C92.5878 13.2758 92.7659 12.6938 92.7659 11.9052V8.10808H93.4528V11.9338C93.4528 12.8942 93.2079 13.6193 92.7182 14.109C92.2348 14.5987 91.567 14.8436 90.7147 14.8436ZM99.8448 14.8436C99.336 14.8436 98.8653 14.7609 98.4328 14.5956C98.0067 14.4238 97.6346 14.1853 97.3166 13.88C97.0049 13.5747 96.7601 13.2154 96.582 12.802C96.4102 12.3886 96.3244 11.937 96.3244 11.4472C96.3244 10.9575 96.4102 10.5059 96.582 10.0925C96.7601 9.67907 97.0081 9.31971 97.3261 9.01442C97.6441 8.70913 98.0162 8.4738 98.4423 8.30843C98.8748 8.1367 99.3455 8.05084 99.8543 8.05084C100.363 8.05084 100.827 8.13034 101.247 8.28935C101.673 8.44836 102.036 8.69005 102.335 9.01442L101.896 9.46282C101.616 9.18297 101.308 8.98262 100.971 8.86177C100.633 8.74093 100.271 8.68051 99.883 8.68051C99.4695 8.68051 99.0879 8.75047 98.7381 8.8904C98.3946 9.02396 98.0925 9.21795 97.8318 9.47236C97.5774 9.72041 97.377 10.013 97.2307 10.3501C97.0908 10.6808 97.0208 11.0465 97.0208 11.4472C97.0208 11.8416 97.0908 12.2073 97.2307 12.5444C97.377 12.8815 97.5774 13.1772 97.8318 13.4316C98.0925 13.6797 98.3946 13.8737 98.7381 14.0136C99.0879 14.1472 99.4664 14.214 99.8734 14.214C100.255 14.214 100.614 14.1567 100.951 14.0422C101.295 13.9277 101.61 13.7338 101.896 13.4603L102.297 13.9945C101.979 14.2744 101.607 14.4874 101.18 14.6337C100.754 14.7737 100.309 14.8436 99.8448 14.8436ZM101.619 13.9087V11.4472H102.297V13.9945L101.619 13.9087ZM108.55 14.8436C108.047 14.8436 107.58 14.7609 107.147 14.5956C106.721 14.4238 106.349 14.1853 106.031 13.88C105.72 13.5684 105.475 13.209 105.297 12.802C105.125 12.3886 105.039 11.937 105.039 11.4472C105.039 10.9575 105.125 10.5091 105.297 10.102C105.475 9.68861 105.72 9.32925 106.031 9.02396C106.349 8.71231 106.721 8.4738 107.147 8.30843C107.574 8.1367 108.041 8.05084 108.55 8.05084C109.052 8.05084 109.517 8.1367 109.943 8.30843C110.369 8.4738 110.738 8.70913 111.049 9.01442C111.367 9.31971 111.612 9.67907 111.784 10.0925C111.962 10.5059 112.051 10.9575 112.051 11.4472C112.051 11.937 111.962 12.3886 111.784 12.802C111.612 13.2154 111.367 13.5747 111.049 13.88C110.738 14.1853 110.369 14.4238 109.943 14.5956C109.517 14.7609 109.052 14.8436 108.55 14.8436ZM108.55 14.214C108.951 14.214 109.319 14.1472 109.657 14.0136C110 13.8737 110.296 13.6797 110.544 13.4316C110.798 13.1772 110.995 12.8847 111.135 12.5539C111.275 12.2168 111.345 11.8479 111.345 11.4472C111.345 11.0465 111.275 10.6808 111.135 10.3501C110.995 10.013 110.798 9.72041 110.544 9.47236C110.296 9.21795 110 9.02396 109.657 8.8904C109.319 8.75047 108.951 8.68051 108.55 8.68051C108.149 8.68051 107.777 8.75047 107.434 8.8904C107.09 9.02396 106.791 9.21795 106.537 9.47236C106.289 9.72041 106.092 10.013 105.945 10.3501C105.805 10.6808 105.735 11.0465 105.735 11.4472C105.735 11.8416 105.805 12.2073 105.945 12.5444C106.092 12.8815 106.289 13.1772 106.537 13.4316C106.791 13.6797 107.09 13.8737 107.434 14.0136C107.777 14.1472 108.149 14.214 108.55 14.214ZM120.643 14.8436C120.147 14.8436 119.67 14.7641 119.212 14.6051C118.76 14.4397 118.411 14.2299 118.163 13.9754L118.439 13.4316C118.675 13.6606 118.989 13.8546 119.384 14.0136C119.784 14.1662 120.204 14.2426 120.643 14.2426C121.063 14.2426 121.403 14.1917 121.664 14.0899C121.931 13.9818 122.125 13.8387 122.246 13.6606C122.373 13.4825 122.437 13.2854 122.437 13.0691C122.437 12.8083 122.36 12.5984 122.208 12.4394C122.061 12.2804 121.867 12.1564 121.626 12.0674C121.384 11.972 121.117 11.8893 120.824 11.8193C120.532 11.7493 120.239 11.6762 119.947 11.5999C119.654 11.5172 119.384 11.4091 119.136 11.2755C118.894 11.1419 118.697 10.967 118.544 10.7508C118.398 10.5282 118.325 10.2388 118.325 9.8826C118.325 9.55186 118.411 9.24975 118.582 8.97626C118.76 8.69641 119.031 8.4738 119.393 8.30843C119.756 8.1367 120.22 8.05084 120.786 8.05084C121.161 8.05084 121.534 8.1049 121.902 8.21303C122.271 8.31479 122.589 8.4579 122.857 8.64234L122.618 9.20523C122.332 9.01442 122.026 8.87449 121.702 8.78545C121.384 8.69641 121.076 8.65188 120.777 8.65188C120.376 8.65188 120.045 8.70595 119.784 8.81407C119.524 8.9222 119.33 9.06848 119.203 9.25293C119.082 9.43102 119.021 9.63455 119.021 9.86352C119.021 10.1243 119.094 10.3342 119.241 10.4932C119.393 10.6522 119.591 10.7762 119.832 10.8653C120.08 10.9543 120.351 11.0338 120.643 11.1038C120.936 11.1737 121.225 11.2501 121.511 11.3327C121.804 11.4154 122.071 11.5236 122.313 11.6571C122.561 11.7843 122.758 11.9561 122.904 12.1723C123.057 12.3886 123.133 12.6716 123.133 13.0214C123.133 13.3458 123.044 13.6479 122.866 13.9277C122.688 14.2012 122.414 14.4238 122.046 14.5956C121.683 14.7609 121.216 14.8436 120.643 14.8436ZM126.007 14.7864V8.10808H126.713V14.7864H126.007ZM130.222 14.7864V8.10808H130.928V14.1758H134.667V14.7864H130.222ZM138.571 14.7864L135.613 8.10808H136.376L139.143 14.3952H138.723L141.509 8.10808H142.225L139.267 14.7864H138.571ZM143.256 14.7864L146.309 8.10808H147.006L150.059 14.7864H149.314L146.509 8.51832H146.796L143.991 14.7864H143.256ZM144.458 13.0023L144.668 12.4299H148.551L148.761 13.0023H144.458Z" fill="#0E0E0E"/>
<path d="M54.3715 29.3003V22.622H54.9534L59.5615 28.4226H59.2562V22.622H59.9526V29.3003H59.3707L54.7722 23.4997H55.0775V29.3003H54.3715ZM64.0977 25.6081H67.6277V26.2092H64.0977V25.6081ZM64.174 28.6897H68.1906V29.3003H63.4681V22.622H68.0475V23.2326H64.174V28.6897ZM73.8761 29.3575C73.0239 29.3575 72.3528 29.1127 71.8631 28.6229C71.3734 28.1332 71.1285 27.4081 71.1285 26.4477V22.622H71.8345V26.4191C71.8345 27.2078 72.0126 27.7897 72.3687 28.165C72.7249 28.5402 73.2274 28.7279 73.8761 28.7279C74.5312 28.7279 75.0369 28.5402 75.3931 28.165C75.7492 27.7897 75.9273 27.2078 75.9273 26.4191V22.622H76.6142V26.4477C76.6142 27.4081 76.3694 28.1332 75.8796 28.6229C75.3962 29.1127 74.7284 29.3575 73.8761 29.3575ZM80.0773 29.3003V22.622H82.5769C83.143 22.622 83.6296 22.7142 84.0366 22.8987C84.4437 23.0768 84.7553 23.3375 84.9716 23.681C85.1942 24.0181 85.3055 24.4283 85.3055 24.9117C85.3055 25.3824 85.1942 25.7894 84.9716 26.1329C84.7553 26.47 84.4437 26.7307 84.0366 26.9152C83.6296 27.0933 83.143 27.1823 82.5769 27.1823H80.4685L80.7833 26.8579V29.3003H80.0773ZM84.6377 29.3003L82.9204 26.877H83.6836L85.4104 29.3003H84.6377ZM80.7833 26.9152L80.4685 26.5813H82.5578C83.2257 26.5813 83.7313 26.435 84.0748 26.1424C84.4246 25.8498 84.5995 25.4396 84.5995 24.9117C84.5995 24.3774 84.4246 23.964 84.0748 23.6714C83.7313 23.3789 83.2257 23.2326 82.5578 23.2326H80.4685L80.7833 22.8987V26.9152ZM91.2268 29.3575C90.7243 29.3575 90.2569 29.2749 89.8244 29.1095C89.3982 28.9378 89.0261 28.6992 88.7081 28.394C88.3965 28.0823 88.1516 27.7229 87.9735 27.3159C87.8018 26.9025 87.7159 26.4509 87.7159 25.9611C87.7159 25.4714 87.8018 25.023 87.9735 24.6159C88.1516 24.2025 88.3965 23.8432 88.7081 23.5379C89.0261 23.2262 89.3982 22.9877 89.8244 22.8223C90.2505 22.6506 90.718 22.5648 91.2268 22.5648C91.7293 22.5648 92.1936 22.6506 92.6197 22.8223C93.0458 22.9877 93.4147 23.223 93.7264 23.5283C94.0444 23.8336 94.2893 24.193 94.461 24.6064C94.6391 25.0198 94.7281 25.4714 94.7281 25.9611C94.7281 26.4509 94.6391 26.9025 94.461 27.3159C94.2893 27.7293 94.0444 28.0887 93.7264 28.394C93.4147 28.6992 93.0458 28.9378 92.6197 29.1095C92.1936 29.2749 91.7293 29.3575 91.2268 29.3575ZM91.2268 28.7279C91.6275 28.7279 91.9964 28.6611 92.3335 28.5275C92.677 28.3876 92.9727 28.1936 93.2208 27.9456C93.4752 27.6911 93.6723 27.3986 93.8123 27.0678C93.9522 26.7307 94.0222 26.3618 94.0222 25.9611C94.0222 25.5604 93.9522 25.1947 93.8123 24.864C93.6723 24.5269 93.4752 24.2343 93.2208 23.9863C92.9727 23.7319 92.677 23.5379 92.3335 23.4043C91.9964 23.2644 91.6275 23.1944 91.2268 23.1944C90.8261 23.1944 90.454 23.2644 90.1106 23.4043C89.7671 23.5379 89.4682 23.7319 89.2138 23.9863C88.9657 24.2343 88.7686 24.5269 88.6223 24.864C88.4823 25.1947 88.4124 25.5604 88.4124 25.9611C88.4124 26.3555 88.4823 26.7212 88.6223 27.0583C88.7686 27.3954 88.9657 27.6911 89.2138 27.9456C89.4682 28.1936 89.7671 28.3876 90.1106 28.5275C90.454 28.6611 90.8261 28.7279 91.2268 28.7279ZM97.6462 29.3003V22.622H98.3522V28.6897H102.092V29.3003H97.6462ZM107.389 29.3575C106.886 29.3575 106.419 29.2749 105.986 29.1095C105.56 28.9378 105.188 28.6992 104.87 28.394C104.559 28.0823 104.314 27.7229 104.136 27.3159C103.964 26.9025 103.878 26.4509 103.878 25.9611C103.878 25.4714 103.964 25.023 104.136 24.6159C104.314 24.2025 104.559 23.8432 104.87 23.5379C105.188 23.2262 105.56 22.9877 105.986 22.8223C106.413 22.6506 106.88 22.5648 107.389 22.5648C107.891 22.5648 108.356 22.6506 108.782 22.8223C109.208 22.9877 109.577 23.223 109.888 23.5283C110.206 23.8336 110.451 24.193 110.623 24.6064C110.801 25.0198 110.89 25.4714 110.89 25.9611C110.89 26.4509 110.801 26.9025 110.623 27.3159C110.451 27.7293 110.206 28.0887 109.888 28.394C109.577 28.6992 109.208 28.9378 108.782 29.1095C108.356 29.2749 107.891 29.3575 107.389 29.3575ZM107.389 28.7279C107.79 28.7279 108.158 28.6611 108.496 28.5275C108.839 28.3876 109.135 28.1936 109.383 27.9456C109.637 27.6911 109.834 27.3986 109.974 27.0678C110.114 26.7307 110.184 26.3618 110.184 25.9611C110.184 25.5604 110.114 25.1947 109.974 24.864C109.834 24.5269 109.637 24.2343 109.383 23.9863C109.135 23.7319 108.839 23.5379 108.496 23.4043C108.158 23.2644 107.79 23.1944 107.389 23.1944C106.988 23.1944 106.616 23.2644 106.273 23.4043C105.929 23.5379 105.63 23.7319 105.376 23.9863C105.128 24.2343 104.931 24.5269 104.784 24.864C104.644 25.1947 104.574 25.5604 104.574 25.9611C104.574 26.3555 104.644 26.7212 104.784 27.0583C104.931 27.3954 105.128 27.6911 105.376 27.9456C105.63 28.1936 105.929 28.3876 106.273 28.5275C106.616 28.6611 106.988 28.7279 107.389 28.7279ZM116.737 29.3575C116.228 29.3575 115.758 29.2749 115.325 29.1095C114.899 28.9378 114.527 28.6992 114.209 28.394C113.897 28.0887 113.652 27.7293 113.474 27.3159C113.303 26.9025 113.217 26.4509 113.217 25.9611C113.217 25.4714 113.303 25.0198 113.474 24.6064C113.652 24.193 113.901 23.8336 114.219 23.5283C114.537 23.223 114.909 22.9877 115.335 22.8223C115.767 22.6506 116.238 22.5648 116.747 22.5648C117.256 22.5648 117.72 22.6443 118.14 22.8033C118.566 22.9623 118.928 23.204 119.227 23.5283L118.788 23.9767C118.509 23.6969 118.2 23.4965 117.863 23.3757C117.526 23.2548 117.163 23.1944 116.775 23.1944C116.362 23.1944 115.98 23.2644 115.631 23.4043C115.287 23.5379 114.985 23.7319 114.724 23.9863C114.47 24.2343 114.269 24.5269 114.123 24.864C113.983 25.1947 113.913 25.5604 113.913 25.9611C113.913 26.3555 113.983 26.7212 114.123 27.0583C114.269 27.3954 114.47 27.6911 114.724 27.9456C114.985 28.1936 115.287 28.3876 115.631 28.5275C115.98 28.6611 116.359 28.7279 116.766 28.7279C117.147 28.7279 117.507 28.6706 117.844 28.5561C118.187 28.4417 118.502 28.2477 118.788 27.9742L119.189 28.5084C118.871 28.7883 118.499 29.0014 118.073 29.1476C117.647 29.2876 117.202 29.3575 116.737 29.3575ZM118.512 28.4226V25.9611H119.189V28.5084L118.512 28.4226ZM122.523 29.3003V22.622H123.229V29.3003H122.523ZM128.579 29.3575C128.083 29.3575 127.606 29.278 127.148 29.119C126.696 28.9537 126.346 28.7438 126.098 28.4894L126.375 27.9456C126.61 28.1745 126.925 28.3685 127.319 28.5275C127.72 28.6802 128.14 28.7565 128.579 28.7565C128.999 28.7565 129.339 28.7056 129.6 28.6038C129.867 28.4957 130.061 28.3526 130.182 28.1745C130.309 27.9964 130.372 27.7993 130.372 27.583C130.372 27.3222 130.296 27.1124 130.143 26.9533C129.997 26.7943 129.803 26.6703 129.561 26.5813C129.32 26.4859 129.053 26.4032 128.76 26.3332C128.467 26.2633 128.175 26.1901 127.882 26.1138C127.59 26.0311 127.319 25.923 127.071 25.7894C126.83 25.6559 126.633 25.4809 126.48 25.2647C126.334 25.0421 126.26 24.7527 126.26 24.3965C126.26 24.0658 126.346 23.7637 126.518 23.4902C126.696 23.2103 126.966 22.9877 127.329 22.8223C127.691 22.6506 128.156 22.5648 128.722 22.5648C129.097 22.5648 129.469 22.6188 129.838 22.7269C130.207 22.8287 130.525 22.9718 130.792 23.1563L130.554 23.7191C130.267 23.5283 129.962 23.3884 129.638 23.2994C129.32 23.2103 129.011 23.1658 128.712 23.1658C128.312 23.1658 127.981 23.2199 127.72 23.328C127.459 23.4361 127.265 23.5824 127.138 23.7668C127.017 23.9449 126.957 24.1485 126.957 24.3774C126.957 24.6382 127.03 24.8481 127.176 25.0071C127.329 25.1661 127.526 25.2901 127.768 25.3792C128.016 25.4682 128.286 25.5477 128.579 25.6177C128.871 25.6877 129.161 25.764 129.447 25.8467C129.74 25.9293 130.007 26.0375 130.248 26.171C130.496 26.2982 130.694 26.47 130.84 26.6862C130.992 26.9025 131.069 27.1855 131.069 27.5353C131.069 27.8597 130.98 28.1618 130.802 28.4417C130.624 28.7151 130.35 28.9378 129.981 29.1095C129.619 29.2749 129.151 29.3575 128.579 29.3575ZM135.147 29.3003V23.2326H132.8V22.622H138.2V23.2326H135.853V29.3003H135.147ZM139.26 29.3003L142.312 22.622H143.009L146.062 29.3003H145.318L142.513 23.0322H142.799L139.994 29.3003H139.26ZM140.462 27.5162L140.672 26.9438H144.554L144.764 27.5162H140.462Z" fill="#0E0E0E"/>
<path fill-rule="evenodd" clip-rule="evenodd" d="M26.7433 0.0484259C26.6261 -0.0192893 26.4802 -0.0157534 26.3665 0.0575552L21.7136 3.05893C21.6125 3.12413 21.5515 3.23525 21.5515 3.3544V18.1616H19.1543V3.11189C19.1543 2.98791 19.0883 2.87301 18.9806 2.8092L14.3276 0.0540659C14.2203 -0.00950181 14.087 -0.0130962 13.9763 0.0446066L5.11778 4.66132C5.00047 4.72245 4.92708 4.8426 4.92708 4.97347V10.4905L0.177142 13.232C0.0674352 13.2953 0 13.4113 0 13.5367V25.6742C0 25.7903 0.05786 25.899 0.154744 25.9649L4.92708 29.2105V34.527C4.92708 34.6523 4.99443 34.7682 5.10404 34.8316L13.9626 39.9516C14.0797 40.0193 14.2256 40.0158 14.3393 39.9424L18.9923 36.9411C19.0933 36.8759 19.1543 36.7648 19.1543 36.6456V24.362H21.5515V36.7077C21.5515 36.8282 21.6137 36.9403 21.7166 37.0052L26.3696 39.9406C26.4781 40.0091 26.6156 40.0147 26.7295 39.9554L35.588 35.3386C35.7053 35.2775 35.7787 35.1574 35.7787 35.0265V29.5094L40.5287 26.768C40.6384 26.7046 40.7058 26.5887 40.7058 26.4633V14.3258C40.7058 14.2097 40.648 14.101 40.5511 14.0351L35.7787 10.7895V5.47301C35.7787 5.34768 35.7114 5.23175 35.6018 5.1684L26.7433 0.0484259ZM18.4386 24.362H17.6864C17.3774 24.362 17.1269 24.1149 17.1269 23.81V18.7136C17.1269 18.4087 17.3774 18.1616 17.6864 18.1616H18.4386V8.63981L14.5013 10.8962V30.8179C15.1026 30.9644 15.5484 31.5001 15.5484 32.1385C15.5484 32.8898 14.9311 33.4988 14.1696 33.4988C13.4081 33.4988 12.7908 32.8898 12.7908 32.1385C12.7908 31.5187 13.2109 30.9958 13.7856 30.8317V20.0969L10.0751 22.6562V27.0445C10.6669 27.1975 11.1035 27.7287 11.1035 28.3605C11.1035 29.1117 10.4861 29.7207 9.72465 29.7207C8.96315 29.7207 8.34583 29.1117 8.34583 28.3605C8.34583 27.7339 8.77518 27.2064 9.35943 27.0484V22.4723C9.35943 22.357 9.41648 22.249 9.51223 22.183L13.7856 19.2354V10.693C13.7856 10.5672 13.8534 10.4509 13.9637 10.3878L18.4386 7.82326V3.31174L14.1322 0.761861L5.64278 5.18624V10.0775L11.0545 6.95409C11.0108 6.82152 10.9871 6.68001 10.9871 6.53306C10.9871 5.78181 11.6045 5.17281 12.366 5.17281C13.1275 5.17281 13.7448 5.78181 13.7448 6.53306C13.7448 7.28431 13.1275 7.89331 12.366 7.89331C12.0124 7.89331 11.6899 7.76203 11.4459 7.54619L0.715696 13.7392V25.4888L4.92708 28.3529V17.9312C4.92708 17.8089 4.99133 17.6952 5.09688 17.6309L7.72616 16.0288C7.65954 15.8692 7.62279 15.6944 7.62279 15.5111C7.62279 14.7598 8.24011 14.1508 9.00161 14.1508C9.76311 14.1508 10.3804 14.7598 10.3804 15.5111C10.3804 16.2623 9.76311 16.8713 9.00161 16.8713C8.68663 16.8713 8.39631 16.7671 8.16415 16.5918L5.64278 18.1281V34.3247L14.1331 39.2318L18.4386 36.4546V24.362ZM22.2672 18.1616V3.54537L26.5727 0.768158L35.063 5.67533V21.8719L32.3233 23.5413C32.0786 23.3226 31.754 23.1895 31.3979 23.1895C30.6364 23.1895 30.0191 23.7985 30.0191 24.5497C30.0191 25.301 30.6364 25.91 31.3979 25.91C32.1594 25.91 32.7767 25.301 32.7767 24.5497C32.7767 24.405 32.7538 24.2655 32.7114 24.1347L35.6089 22.3691C35.7145 22.3048 35.7787 22.1911 35.7787 22.0687V11.6471L39.9901 14.5112V26.2608L29.1668 32.5076C28.9171 32.26 28.5713 32.1067 28.1893 32.1067C27.4278 32.1067 26.8105 32.7157 26.8105 33.4669C26.8105 34.2182 27.4278 34.8272 28.1893 34.8272C28.9508 34.8272 29.5681 34.2182 29.5681 33.4669C29.5681 33.347 29.5524 33.2308 29.5229 33.12L35.063 29.9225V34.8137L26.5795 39.235L22.2672 36.5145V32.0035L26.7328 29.6174C26.8483 29.5557 26.9202 29.4365 26.9202 29.3069V20.7646L31.1936 17.817C31.2893 17.751 31.3464 17.643 31.3464 17.5277V11.7172C31.9144 11.5491 32.3282 11.0293 32.3282 10.4142C32.3282 9.66296 31.7109 9.05396 30.9494 9.05396C30.1879 9.05396 29.5706 9.66296 29.5706 10.4142C29.5706 11.0572 30.0229 11.596 30.6307 11.7379V17.3438L26.9202 19.9031V8.1793C27.5269 8.03659 27.978 7.49832 27.978 6.8561C27.978 6.10486 27.3607 5.49585 26.5992 5.49585C25.8377 5.49585 25.2204 6.10486 25.2204 6.8561C25.2204 7.47203 25.6353 7.99234 26.2045 8.1598V29.0967L22.2672 31.2005V24.362H22.8524C23.1614 24.362 23.4119 24.1149 23.4119 23.81V18.7136C23.4119 18.4087 23.1614 18.1616 22.8524 18.1616H22.2672ZM17.8429 23.6556V18.868H22.6959V23.6556H17.8429ZM8.33936 15.5111C8.33936 15.8719 8.63586 16.1644 9.00161 16.1644C9.36736 16.1644 9.66386 15.8719 9.66386 15.5111C9.66386 15.1503 9.36736 14.8578 9.00161 14.8578C8.63586 14.8578 8.33936 15.1503 8.33936 15.5111ZM9.0624 28.3605C9.0624 28.7213 9.3589 29.0138 9.72465 29.0138C10.0904 29.0138 10.3869 28.7213 10.3869 28.3605C10.3869 27.9996 10.0904 27.7071 9.72465 27.7071C9.3589 27.7071 9.0624 27.9996 9.0624 28.3605ZM11.7037 6.53306C11.7037 6.89388 12.0002 7.18639 12.366 7.18639C12.7317 7.18639 13.0282 6.89388 13.0282 6.53306C13.0282 6.17224 12.7317 5.87973 12.366 5.87973C12.0002 5.87973 11.7037 6.17224 11.7037 6.53306ZM27.5271 33.4669C27.5271 33.1061 27.8236 32.8136 28.1893 32.8136C28.5551 32.8136 28.8516 33.1061 28.8516 33.4669C28.8516 33.8278 28.5551 34.1203 28.1893 34.1203C27.8236 34.1203 27.5271 33.8278 27.5271 33.4669ZM30.7357 24.5497C30.7357 24.1889 31.0322 23.8964 31.3979 23.8964C31.7637 23.8964 32.0602 24.1889 32.0602 24.5497C32.0602 24.9105 31.7637 25.203 31.3979 25.203C31.0322 25.203 30.7357 24.9105 30.7357 24.5497ZM30.2872 10.4142C30.2872 10.0534 30.5837 9.76088 30.9494 9.76088C31.3152 9.76088 31.6117 10.0534 31.6117 10.4142C31.6117 10.775 31.3152 11.0675 30.9494 11.0675C30.5837 11.0675 30.2872 10.775 30.2872 10.4142ZM25.937 6.8561C25.937 6.49528 26.2335 6.20277 26.5992 6.20277C26.965 6.20277 27.2615 6.49528 27.2615 6.8561C27.2615 7.21692 26.965 7.50943 26.5992 7.50943C26.2335 7.50943 25.937 7.21692 25.937 6.8561ZM13.5073 32.1385C13.5073 32.4994 13.8038 32.7919 14.1696 32.7919C14.5353 32.7919 14.8318 32.4994 14.8318 32.1385C14.8318 31.7777 14.5353 31.4852 14.1696 31.4852C13.8038 31.4852 13.5073 31.7777 13.5073 32.1385Z" fill="#4FBE89"/>
</svg>
